<svg width="87" height="24" viewBox="0 0 87 24" fill="none" xmlns="http://www.w3.org/2000/svg">
<circle cx="12" cy="12" r="11.4" stroke="#681BF2" stroke-width="1.2"/>
<ellipse cx="12.2368" cy="8.54877" rx="2.98627" ry="2.98627" stroke="url(#paint0_linear_501_454)" stroke-width="1.5" stroke-linecap="round" stroke-linejoin="round"/>
<path fill-rule="evenodd" clip-rule="evenodd" d="M7.50001 15.6885C7.49921 15.4785 7.54616 15.2712 7.63731 15.0821C7.92335 14.51 8.72999 14.2068 9.39932 14.0695C9.88205 13.9665 10.3714 13.8976 10.8639 13.8635C11.7755 13.7834 12.6925 13.7834 13.6041 13.8635C14.0965 13.898 14.5859 13.9669 15.0687 14.0695C15.738 14.2068 16.5446 14.4814 16.8307 15.0821C17.014 15.4676 17.014 15.9151 16.8307 16.3006C16.5446 16.9013 15.738 17.1759 15.0687 17.3075C14.5865 17.4147 14.0969 17.4855 13.6041 17.5191C12.8621 17.582 12.1166 17.5935 11.373 17.5535C11.2014 17.5535 11.0355 17.5535 10.8639 17.5191C10.3729 17.4859 9.8852 17.4152 9.40504 17.3075C8.72999 17.1759 7.92907 16.9013 7.63731 16.3006C7.54662 16.1093 7.49972 15.9002 7.50001 15.6885Z" stroke="url(#paint1_linear_501_454)" stroke-width="1.5" stroke-linecap="round" stroke-linejoin="round"/>
<path d="M46.7266 18L45.3203 14.375H40.7422L39.3438 18H38L42.4688 6.53125H43.6641L48.1016 18H46.7266ZM44.9219 13.1953L43.5859 9.59375C43.5547 9.5 43.5026 9.34635 43.4297 9.13281C43.362 8.91927 43.2917 8.69792 43.2188 8.46875C43.1458 8.23958 43.0859 8.05469 43.0391 7.91406C42.987 8.1276 42.9297 8.34115 42.8672 8.55469C42.8099 8.76302 42.7526 8.95833 42.6953 9.14062C42.638 9.31771 42.5885 9.46875 42.5469 9.59375L41.1875 13.1953H44.9219ZM52.5391 18.1562C51.4557 18.1562 50.5964 17.7865 49.9609 17.0469C49.3307 16.3073 49.0156 15.2083 49.0156 13.75C49.0156 12.276 49.3385 11.1641 49.9844 10.4141C50.6302 9.65885 51.4896 9.28125 52.5625 9.28125C53.0156 9.28125 53.4115 9.34115 53.75 9.46094C54.0885 9.58073 54.3802 9.74219 54.625 9.94531C54.8698 10.1432 55.0755 10.3698 55.2422 10.625H55.3359C55.3151 10.4635 55.2943 10.2422 55.2734 9.96094C55.2526 9.67969 55.2422 9.45052 55.2422 9.27344V5.84375H56.5391V18H55.4922L55.2969 16.7812H55.2422C55.0807 17.0365 54.875 17.2682 54.625 17.4766C54.3802 17.6849 54.0859 17.8516 53.7422 17.9766C53.4036 18.0964 53.0026 18.1562 52.5391 18.1562ZM52.7422 17.0781C53.6589 17.0781 54.3073 16.8177 54.6875 16.2969C55.0677 15.776 55.2578 15.0026 55.2578 13.9766V13.7422C55.2578 12.6536 55.0755 11.8177 54.7109 11.2344C54.3516 10.651 53.6953 10.3594 52.7422 10.3594C51.9453 10.3594 51.349 10.6667 50.9531 11.2812C50.5573 11.8906 50.3594 12.724 50.3594 13.7812C50.3594 14.8333 50.5547 15.6458 50.9453 16.2188C51.3411 16.7917 51.9401 17.0781 52.7422 17.0781ZM68.5859 9.28125C69.5286 9.28125 70.2396 9.52865 70.7188 10.0234C71.1979 10.513 71.4375 11.3021 71.4375 12.3906V18H70.1562V12.4531C70.1562 11.7604 70.0052 11.2422 69.7031 10.8984C69.4062 10.5495 68.9635 10.375 68.375 10.375C67.5469 10.375 66.9453 10.6146 66.5703 11.0938C66.1953 11.5729 66.0078 12.2786 66.0078 13.2109V18H64.7188V12.4531C64.7188 11.9896 64.651 11.6042 64.5156 11.2969C64.3854 10.9896 64.1875 10.7604 63.9219 10.6094C63.6615 10.4531 63.3307 10.375 62.9297 10.375C62.362 10.375 61.9062 10.4922 61.5625 10.7266C61.2188 10.9609 60.9688 11.3099 60.8125 11.7734C60.6615 12.2318 60.5859 12.7969 60.5859 13.4688V18H59.2891V9.4375H60.3359L60.5312 10.6484H60.6016C60.7734 10.3516 60.9896 10.1016 61.25 9.89844C61.5104 9.69531 61.8021 9.54167 62.125 9.4375C62.4479 9.33333 62.7917 9.28125 63.1562 9.28125C63.8073 9.28125 64.3516 9.40365 64.7891 9.64844C65.2318 9.88802 65.5521 10.2552 65.75 10.75H65.8203C66.1016 10.2552 66.487 9.88802 66.9766 9.64844C67.4661 9.40365 68.0026 9.28125 68.5859 9.28125ZM75.3984 9.4375V18H74.1016V9.4375H75.3984ZM74.7656 6.23438C74.9792 6.23438 75.1615 6.30469 75.3125 6.44531C75.4688 6.58073 75.5469 6.79427 75.5469 7.08594C75.5469 7.3724 75.4688 7.58594 75.3125 7.72656C75.1615 7.86719 74.9792 7.9375 74.7656 7.9375C74.5417 7.9375 74.3542 7.86719 74.2031 7.72656C74.0573 7.58594 73.9844 7.3724 73.9844 7.08594C73.9844 6.79427 74.0573 6.58073 74.2031 6.44531C74.3542 6.30469 74.5417 6.23438 74.7656 6.23438ZM82.2031 9.28125C83.2188 9.28125 83.987 9.53125 84.5078 10.0312C85.0286 10.526 85.2891 11.3229 85.2891 12.4219V18H84.0078V12.5078C84.0078 11.7943 83.8438 11.2604 83.5156 10.9062C83.1927 10.5521 82.6953 10.375 82.0234 10.375C81.0755 10.375 80.4089 10.6432 80.0234 11.1797C79.638 11.7161 79.4453 12.4948 79.4453 13.5156V18H78.1484V9.4375H79.1953L79.3906 10.6719H79.4609C79.6432 10.3698 79.875 10.1172 80.1562 9.91406C80.4375 9.70573 80.7526 9.54948 81.1016 9.44531C81.4505 9.33594 81.8177 9.28125 82.2031 9.28125Z" fill="url(#paint2_linear_501_454)"/>
<defs>
<linearGradient id="paint0_linear_501_454" x1="12.2368" y1="5.5625" x2="12.2368" y2="11.535" gradientUnits="userSpaceOnUse">
<stop stop-color="#BB21E6"/>
<stop offset="1" stop-color="#661BF2" stop-opacity="0.83"/>
</linearGradient>
<linearGradient id="paint1_linear_501_454" x1="12.2341" y1="13.8035" x2="12.2341" y2="17.5768" gradientUnits="userSpaceOnUse">
<stop stop-color="#BB21E6"/>
<stop offset="1" stop-color="#661BF2" stop-opacity="0.83"/>
</linearGradient>
<linearGradient id="paint2_linear_501_454" x1="39.5" y1="7.5" x2="85.5" y2="18" gradientUnits="userSpaceOnUse">
<stop stop-color="#BA21E7"/>
<stop offset="1" stop-color="#BB21E6"/>
</linearGradient>
</defs>
</svg>
