<svg width="112" height="112" viewBox="0 0 112 112" fill="none" xmlns="http://www.w3.org/2000/svg">
<circle cx="56" cy="56" r="55.5" stroke="white"/>
<path d="M40.4622 55.9397L38.4946 57.1396L33.71 49.294C33.5506 49.0328 33.3941 48.7699 33.2403 48.5052C33.0866 48.2406 32.9362 47.9815 32.7892 47.728C32.6478 47.4711 32.5159 47.2236 32.3936 46.9856C32.3549 47.1846 32.2951 47.4117 32.2143 47.6668C32.1391 47.9186 32.0561 48.1827 31.9655 48.4592L31.2461 50.4306L29.5047 49.7883L31.3944 44.7468L33.0285 43.7502L40.4622 55.9397ZM52.7267 48.4602L44.4726 53.494L43.5726 52.0182L44.78 46.8896C45.0118 45.8941 45.1877 45.051 45.3078 44.3601C45.4245 43.6636 45.4536 43.0549 45.3951 42.5339C45.3422 42.0095 45.17 41.5083 44.8785 41.0303C44.5191 40.4411 44.0784 40.0998 43.5563 40.0064C43.0308 39.9075 42.4902 40.0275 41.9343 40.3665C41.4063 40.6885 40.9816 41.0924 40.6602 41.5782C40.3409 42.0551 40.0592 42.631 39.8151 43.306L37.9514 42.6696C38.1142 42.1738 38.3145 41.6895 38.5523 41.2166C38.7956 40.7403 39.1139 40.2869 39.5072 39.8564C39.8971 39.4204 40.3977 39.0159 41.0091 38.6431C41.7817 38.1719 42.5335 37.9041 43.2644 37.8396C43.9919 37.7696 44.6548 37.8877 45.2533 38.1938C45.8573 38.4965 46.3576 38.973 46.7542 39.6233C47.1542 40.2792 47.393 40.9647 47.4708 41.6798C47.5485 42.395 47.5117 43.1724 47.3603 44.012C47.2055 44.8461 46.9879 45.7833 46.7073 46.8237L45.8538 50.1695L45.9097 50.2612L51.6793 46.7427L52.7267 48.4602ZM64.3742 41.357L62.0731 42.7603L54.9033 39.5377L54.2976 41.2454L57.0789 45.806L55.0779 47.0263L47.6442 34.8369L49.6452 33.6166L53.1993 39.4445C53.2609 38.9952 53.3252 38.5442 53.3922 38.0915C53.4593 37.6388 53.5264 37.1861 53.5935 36.7335L54.5727 30.6116L56.8321 29.2336L55.534 37.3459L64.3742 41.357ZM65.8701 31.1682L69.2051 29.1344L70.1101 30.6185L66.7751 32.6523L68.8293 36.0207L67.3452 36.9257L65.2911 33.5574L61.9644 35.5861L61.0593 34.1021L64.386 32.0733L62.3115 28.6716L63.7955 27.7665L65.8701 31.1682Z" fill="#D7D7D7"/>
<path d="M53.0682 72.0769C53.3767 72.5827 53.5136 73.0917 53.479 73.6039C53.4459 74.1099 53.2607 74.5938 52.9232 75.0558C52.5858 75.5178 52.1116 75.9351 51.5008 76.3076C51.1778 76.5046 50.8629 76.6753 50.556 76.8197C50.2491 76.9642 49.9573 77.0808 49.6804 77.1696C49.4036 77.2583 49.1477 77.3157 48.9126 77.3416L48.3324 76.3903C48.6978 76.3329 49.1226 76.2286 49.6069 76.0774C50.0888 75.9223 50.5593 75.7048 51.0184 75.4248C51.4464 75.1638 51.7739 74.8867 52.0008 74.5935C52.2253 74.2965 52.3482 73.9947 52.3694 73.6881C52.3921 73.3753 52.311 73.0672 52.1259 72.7637C51.9479 72.4719 51.7354 72.2679 51.4884 72.1516C51.239 72.0315 50.9158 71.983 50.519 72.0062C50.1236 72.0231 49.6134 72.0968 48.9883 72.2271C48.5481 72.3194 48.1436 72.3739 47.7748 72.3906C47.4037 72.4034 47.0654 72.3695 46.76 72.2889C46.4546 72.2082 46.175 72.0692 45.9211 71.8717C45.6711 71.6719 45.4453 71.4066 45.2436 71.0759C44.9659 70.6206 44.8434 70.1615 44.8761 69.6986C44.9102 69.2294 45.0793 68.7846 45.3835 68.3643C45.6891 67.9377 46.1085 67.5618 46.6415 67.2368C47.0967 66.9591 47.543 66.7457 47.9804 66.5964C48.4217 66.4447 48.8477 66.3424 49.2585 66.2894L49.4688 67.3301C49.0831 67.3892 48.691 67.4815 48.2925 67.6071C47.898 67.7303 47.5178 67.9034 47.152 68.1264C46.7863 68.3495 46.5102 68.5926 46.3237 68.8558C46.1388 69.1127 46.0395 69.3788 46.0258 69.654C46.0122 69.9292 46.0872 70.201 46.251 70.4695C46.4337 70.7691 46.6478 70.9801 46.8933 71.1026C47.1427 71.2228 47.453 71.2764 47.8242 71.2636C48.1968 71.2445 48.6638 71.1786 49.2249 71.0659C49.8384 70.9427 50.383 70.8774 50.859 70.8701C51.3325 70.8588 51.7509 70.9453 52.1141 71.1295C52.475 71.3098 52.793 71.6256 53.0682 72.0769ZM57.7051 71.435C57.8646 71.3377 58.0197 71.2245 58.1704 71.0952C58.3211 70.9659 58.4371 70.8498 58.5184 70.7468L58.9776 71.4997C58.8956 71.6191 58.7641 71.758 58.5832 71.9164C58.4061 72.0724 58.2222 72.2086 58.0316 72.3249C57.6931 72.5313 57.3501 72.6604 57.0027 72.7121C56.6528 72.76 56.3077 72.6929 55.9672 72.5109C55.6305 72.3265 55.3092 71.9834 55.0031 71.4815L52.6896 67.6879L51.7791 68.2431L51.4908 67.7704L52.1758 66.8323L51.7139 65.2083L52.2975 64.8524L53.2015 66.3348L55.075 65.1923L55.5377 65.951L53.6642 67.0935L55.9599 70.8579C56.2043 71.2587 56.4785 71.5025 56.7824 71.5894C57.0901 71.6739 57.3977 71.6225 57.7051 71.435ZM58.7403 62.8129C59.5029 62.3478 60.1734 62.1738 60.7518 62.2907C61.3303 62.4077 61.8485 62.8417 62.3064 63.5926L64.958 67.9406L64.2519 68.3713L63.4885 67.5397L63.4418 67.5682C63.4052 67.9108 63.3383 68.2212 63.241 68.4993C63.1414 68.7736 62.9881 69.0299 62.7811 69.2682C62.5757 69.5003 62.2881 69.729 61.9185 69.9544C61.5294 70.1917 61.1416 70.3348 60.7551 70.3837C60.3724 70.4302 60.0093 70.3687 59.6658 70.1993C59.3261 70.0274 59.027 69.7294 58.7683 69.3053C58.3792 68.6672 58.3331 68.0228 58.6301 67.3719C58.9271 66.721 59.5836 66.0645 60.5996 65.4022L61.6742 64.6828L61.4357 64.2918C61.0987 63.7393 60.744 63.4245 60.3714 63.3475C59.9988 63.2704 59.5966 63.3636 59.1647 63.627C58.8301 63.831 58.5407 64.0742 58.2965 64.3566C58.0523 64.6389 57.8344 64.9293 57.6427 65.2277L56.8966 64.6739C57.0944 64.3504 57.348 64.0223 57.6574 63.6894C57.9669 63.3566 58.3278 63.0644 58.7403 62.8129ZM62.0789 65.3727L61.1292 66.008C60.3505 66.5255 59.8678 66.9988 59.681 67.4276C59.4941 67.8565 59.5288 68.2811 59.7851 68.7013C60.0082 69.067 60.284 69.2698 60.6125 69.3096C60.9411 69.3495 61.2882 69.2579 61.654 69.0348C62.222 68.6884 62.5909 68.2473 62.7605 67.7114C62.9302 67.1756 62.8228 66.5925 62.4384 65.9622L62.0789 65.3727ZM68.6072 64.7864C68.7667 64.6891 68.9218 64.5758 69.0725 64.4465C69.2232 64.3173 69.3392 64.2012 69.4206 64.0982L69.8797 64.8511C69.7977 64.9705 69.6662 65.1094 69.4853 65.2678C69.3082 65.4238 69.1243 65.5599 68.9337 65.6762C68.5952 65.8826 68.2522 66.0117 67.9048 66.0635C67.555 66.1113 67.2098 66.0443 66.8693 65.8623C66.5327 65.6779 66.2113 65.3347 65.9052 64.8328L63.5917 61.0393L62.6812 61.5945L62.3929 61.1218L63.0779 60.1836L62.616 58.5597L63.1996 58.2037L64.1037 59.6862L65.9771 58.5436L66.4398 59.3024L64.5664 60.4449L66.8621 64.2093C67.1065 64.61 67.3806 64.8538 67.6845 64.9408C67.9923 65.0253 68.2998 64.9738 68.6072 64.7864ZM72.5954 54.5075L76.4963 60.904L75.7026 61.3881L75.0144 60.5747L74.9619 60.6067C74.9648 60.9092 74.9075 61.2004 74.79 61.4802C74.6724 61.7601 74.5039 62.0177 74.2844 62.253C74.0712 62.4898 73.8167 62.6983 73.521 62.8787C73.0152 63.1871 72.5412 63.364 72.0992 63.4094C71.6571 63.4548 71.2442 63.3597 70.8603 63.1241C70.4803 62.8861 70.1265 62.4987 69.7991 61.9617L67.2436 57.7713L68.2241 57.1733L70.7369 61.2937C71.0619 61.8268 71.4258 62.152 71.8284 62.2695C72.2286 62.3831 72.6757 62.2892 73.1699 61.9878C73.6446 61.6983 73.9674 61.3787 74.1384 61.0289C74.3133 60.6767 74.3574 60.2895 74.2707 59.8673C74.1817 59.4411 73.9829 58.9752 73.6744 58.4694L71.6208 55.1019L72.5954 54.5075ZM77.0357 51.6395C77.5804 51.3073 78.1208 51.1431 78.657 51.1471C79.1932 51.151 79.6973 51.308 80.1693 51.618C80.6389 51.9242 81.0505 52.3671 81.404 52.9468L81.7706 53.548L77.3526 56.2423C77.8222 56.9861 78.3577 57.4442 78.9593 57.6165C79.5608 57.7888 80.1903 57.6744 80.8478 57.2734C81.2525 57.0266 81.5879 56.7714 81.8541 56.5076C82.1203 56.2439 82.3768 55.938 82.6236 55.59L83.1432 56.4421C82.9081 56.783 82.6512 57.0838 82.3724 57.3445C82.0976 57.6028 81.7443 57.8637 81.3124 58.1271C80.6976 58.502 80.0848 58.7049 79.4738 58.7359C78.8643 58.7606 78.2848 58.6069 77.7353 58.2748C77.1858 57.9427 76.6963 57.4245 76.2669 56.7202C75.8469 56.0316 75.5986 55.3663 75.5221 54.7244C75.4471 54.0762 75.5366 53.4878 75.7907 52.9592C76.0487 52.4282 76.4637 51.9883 77.0357 51.6395ZM77.508 52.4403C76.9906 52.7559 76.6813 53.1767 76.5804 53.7026C76.4795 54.2286 76.5849 54.8128 76.8967 55.4554L80.2817 53.391C80.0453 53.0121 79.7809 52.7143 79.4886 52.4975C79.1978 52.2745 78.887 52.1545 78.5563 52.1373C78.2232 52.1163 77.8738 52.2173 77.508 52.4403Z" fill="#D7D7D7"/>
</svg>
